#!OML:ASF X:\für Bonn\!DataBase\2005_08_10_Bjorn_Final\c3d\bjorn.ASF
:FULLY-SPECIFIED
:DEGREES
326
root -0.111035 1.98164 22.1354 -434.778 -173.538 366.43
lowerback 50.4202 3.57123 20.475
upperback 27.6439 -1.5145 4.27669
thorax 12.8272 -5.27255 -5.53562
lowerneck 10.4551 11.1239 7.13706
upperneck 15.7934 14.9157 -9.00308
head 4.3073 6.95926 -3.74518
rclavicle -3.22031e-014 5.80451e-014
rhumerus -242.143 -176.561 106.262
rradius 34.6977
rwrist -29.9691
rhand -14.1274 3.63714
rfingers 7.12502
rthumb 12.0062 -25.9985
lclavicle -3.22031e-014 5.80451e-014
lhumerus -436.543 -46.2316 -265.468
lradius 51.6984
lwrist 43.6789
lhand -24.1422 7.99741
lfingers 7.12502
lthumb 2.34007 37.9643
rfemur -71.932 -35.5544 1.69079
rtibia 121.588
rfoot 34.8722 19.3765
rtoes -5.32755
lfemur -80.0254 8.0749 -2.22476
ltibia 128.4
lfoot 33.0859 -19.4997
ltoes -11.3593
327
root -0.111049 1.98396 22.1353 -434.842 -173.636 366.466
lowerback 50.6732 3.44978 20.596
upperback 27.5157 -1.53101 4.20695
thorax 12.6459 -5.27117 -5.62108
lowerneck 10.3831 11.1915 7.13557
upperneck 15.866 15.0021 -8.97007
head 4.34648 6.99791 -3.72575
rclavicle 2.84262e-014 -1.43125e-014
rhumerus -242.203 -176.587 106.314
rradius 34.5403
rwrist -29.8902
rhand -14.001 3.77569
rfingers 7.12502
rthumb 12.1281 -25.8528
lclavicle 2.84262e-014 -1.43125e-014
lhumerus -436.426 -45.8743 -265.79
lradius 51.6808
lwrist 43.3735
lhand -24.2487 7.79932
lfingers 7.12502
lthumb 2.23715 37.7673
rfemur -71.8008 -35.3927 1.79922
rtibia 121.535
rfoot 34.9462 19.3753
rtoes -5.13398
lfemur -79.709 7.79026 -2.39268
ltibia 127.579
lfoot 33.7324 -18.7991
ltoes -11.0022
328
root -0.112161 1.98624 22.1335 -434.896 -173.736 366.508
lowerback 50.9484 3.30581 20.7278
upperback 27.3758 -1.5638 4.12145
thorax 12.4476 -5.27605 -5.72067
lowerneck 10.2641 11.2775 7.10753
upperneck 15.9828 15.1077 -8.90761
head 4.40432 7.04262 -3.68903
rclavicle -3.8763e-014 1.43125e-014
rhumerus -242.264 -176.576 106.407
rradius 34.3647
rwrist -29.7914
rhand -13.8528 3.89308
rfingers 7.12502
rthumb 12.2711 -25.7269
lclavicle -3.8763e-014 1.43125e-014
lhumerus -436.311 -45.493 -266.088
lradius 51.6097
lwrist 43.1074
lhand -24.3292 7.61164
lfingers 7.12502
lthumb 2.15945 37.5805
rfemur -71.6813 -35.2212 1.90054
rtibia 121.48
rfoot 35.0261 19.3085
rtoes -4.79785
lfemur -79.4173 7.55187 -2.55858
ltibia 126.796
lfoot 34.2668 -18.0891
ltoes -10.2127
329
root -0.113113 1.98862 22.1304 -434.932 -173.879 366.567
lowerback 51.2068 3.16162 20.8754
upperback 27.2475 -1.60724 4.04832
thorax 12.2705 -5.28954 -5.81432
lowerneck 10.1045 11.3768 7.057
upperneck 16.1124 15.2314 -8.85581
head 4.4729 7.09363 -3.64864
rclavicle 1.25234e-014 3.33958e-014
rhumerus -242.259 -176.534 106.569
rradius 34.1625
rwrist -29.5752
rhand -13.6509 4.0221
rfingers 7.12502
rthumb 12.4657 -25.5861
lclavicle 1.25234e-014 3.33958e-014
lhumerus -436.209 -45.1503 -266.27
lradius 51.4024
lwrist 42.9483
lhand -24.4841 7.35021
lfingers 7.12502
lthumb 2.0098 37.3205
rfemur -71.5974 -35.0717 2.07961
rtibia 121.448
rfoot 35.076 19.3013
rtoes -4.71215
lfemur -79.1858 7.39992 -2.66141
ltibia 126.04
lfoot 34.8541 -17.2189
ltoes -8.55253
330
root -0.114525 1.99162 22.1283 -434.957 -174.011 366.628
lowerback 51.4708 3.02476 21.0411
upperback 27.1314 -1.64176 3.99065
thorax 12.1149 -5.30002 -5.90248
lowerneck 9.93847 11.4603 6.99967
upperneck 16.1865 15.3396 -8.82937
head 4.52504 7.13937 -3.61585
rclavicle 1.39149e-015 3.97569e-015
rhumerus -242.202 -176.352 106.826
rradius 33.8767
rwrist -29.2156
rhand -13.4672 4.17846
rfingers 7.12502
rthumb 12.6428 -25.4189
lclavicle 1.39149e-015 3.97569e-015
lhumerus -436.004 -44.8088 -266.5
lradius 51.1709
lwrist 42.7737
lhand -24.6279 7.07106
lfingers 7.12502
lthumb 1.8709 37.0426
rfemur -71.5219 -34.9126 2.25666
rtibia 121.401
rfoot 35.1504 19.244
rtoes -4.41238
lfemur -78.9919 7.25099 -2.78395
ltibia 125.306
lfoot 35.334 -16.2756
ltoes -6.76421
331
root -0.117146 1.99453 22.1241 -434.969 -174.166 366.666
lowerback 51.7208 2.9141 21.2213
upperback 27.0315 -1.64852 3.94387
thorax 11.9888 -5.29617 -5.99579
lowerneck 9.7573 11.5294 6.94746
upperneck 16.2773 15.4239 -8.74419
head 4.5788 7.17538 -3.56557
rclavicle 2.18663e-014 -7.95139e-016
rhumerus -242.137 -176.096 107.134
rradius 33.5935
rwrist -28.8513
rhand -13.2146 4.29855
rfingers 7.12502
rthumb 12.8863 -25.2836
lclavicle 2.18663e-014 -7.95139e-016
lhumerus -435.787 -44.5069 -266.729
lradius 50.9333
lwrist 42.5493
lhand -24.7361 6.87405
lfingers 7.12502
lthumb 1.76645 36.8465
rfemur -71.4705 -34.7532 2.44175
rtibia 121.369
rfoot 35.2287 19.217
rtoes -4.15271
lfemur -78.8231 7.1746 -2.89378
ltibia 124.604
lfoot 35.6214 -15.3612
ltoes -5.39605
332
root -0.119594 1.99843 22.1197 -434.988 -174.3 366.72
lowerback 52.0151 2.7934 21.4156
upperback 26.9182 -1.64819 3.90076
thorax 11.8458 -5.28986 -6.08686
lowerneck 9.64272 11.5833 6.91656
upperneck 16.3031 15.4929 -8.68756
head 4.60432 7.20849 -3.53282
rclavicle 2.70347e-014 5.08889e-014
rhumerus -242.055 -175.756 107.477
rradius 33.2186
rwrist -28.3941
rhand -13.0045 4.43474
rfingers 7.12502
rthumb 13.0888 -25.1345
lclavicle 2.70347e-014 5.08889e-014
lhumerus -435.609 -44.2661 -266.914
lradius 50.7067
lwrist 42.3483
lhand -24.8203 6.68055
lfingers 7.12502
lthumb 1.68514 36.6536
rfemur -71.3926 -34.6065 2.60593
rtibia 121.333
rfoot 35.2961 19.2075
rtoes -3.88788
lfemur -78.657 7.12255 -3.03373
ltibia 123.938
lfoot 35.7711 -14.5513
ltoes -4.15628
333
root -0.122468 2.00098 22.1147 -435.002 -174.444 366.788
lowerback 52.2953 2.68825 21.6075
upperback 26.8314 -1.65582 3.88903
thorax 11.7406 -5.29809 -6.14662
lowerneck 9.48666 11.6385 6.84113
upperneck 16.3132 15.5635 -8.63333
head 4.62806 7.24062 -3.49184
rclavicle 1.01977e-013 -5.64548e-014
rhumerus -241.897 -175.374 107.891
rradius 32.7816
rwrist -27.8513
rhand -12.7592 4.6081
rfingers 7.12502
rthumb 13.3253 -24.9459
lclavicle 1.01977e-013 -5.64548e-014
lhumerus -435.379 -44.002 -267.092
lradius 50.4932
lwrist 42.152
lhand -24.9591 6.51611
lfingers 7.12502
lthumb 1.55108 36.4902
rfemur -71.3243 -34.4793 2.77972
rtibia 121.299
rfoot 35.3774 19.1059
rtoes -3.56537
lfemur -78.5246 7.10756 -3.17313
ltibia 123.306
lfoot 35.8528 -13.8702
ltoes -2.82766
334
root -0.126136 2.00477 22.1084 -435.002 -174.598 366.848
lowerback 52.5867 2.58148 21.802
upperback 26.7378 -1.65844 3.86466
thorax 11.6273 -5.30193 -6.2204
lowerneck 9.35934 11.6939 6.76994
upperneck 16.2923 15.6306 -8.53601
head 4.63461 7.27527 -3.44075
rclavicle 5.4467e-014 -4.29375e-014
rhumerus -241.696 -174.976 108.313
rradius 32.252
rwrist -27.3148
rhand -12.508 4.83497
rfingers 7.12502
rthumb 13.5674 -24.703
lclavicle 5.4467e-014 -4.29375e-014
lhumerus -435.144 -43.7243 -267.287
lradius 50.2557
lwrist 41.8727
lhand -25.0478 6.44275
lfingers 7.12502
lthumb 1.46545 36.4175
rfemur -71.2764 -34.337 2.97262
rtibia 121.275
rfoot 35.4413 19.1028
rtoes -3.36135
lfemur -78.4088 7.13437 -3.3247
ltibia 122.719
lfoot 35.8092 -13.3962
ltoes -1.84592
335
root -0.130786 2.00792 22.1008 -435.004 -174.744 366.915
lowerback 52.8743 2.46865 22.0175
upperback 26.6584 -1.66686 3.83459
thorax 11.5365 -5.30554 -6.31023
lowerneck 9.31481 11.7158 6.75977
upperneck 16.1779 15.6652 -8.51032
head 4.60633 7.30087 -3.42848
rclavicle 8.32908e-014 -4.77083e-014
rhumerus -241.457 -174.608 108.649
rradius 31.652
rwrist -26.8063
rhand -12.3098 5.15031
rfingers 7.12502
rthumb 13.7585 -24.3748
lclavicle 8.32908e-014 -4.77083e-014
lhumerus -434.884 -43.4677 -267.473
lradius 49.9681
lwrist 41.5593
lhand -25.1826 6.30896
lfingers 7.12502
lthumb 1.33522 36.2845
rfemur -71.2217 -34.1927 3.13678
rtibia 121.256
rfoot 35.5138 19.0464
rtoes -3.00592
lfemur -78.3015 7.2069 -3.48795
ltibia 122.174
lfoot 35.6476 -12.8785
ltoes -0.964069
336
root -0.135484 2.01142 22.0923 -435.01 -174.892 366.98
lowerback 53.1876 2.36207 22.2022
upperback 26.5764 -1.68478 3.81418
thorax 11.4358 -5.32611 -6.37213
lowerneck 9.33988 11.7313 6.6623
upperneck 15.9435 15.6818 -8.44282
head 4.51841 7.32106 -3.3984
rclavicle 4.29375e-014 -2.8625e-014
rhumerus -241.195 -174.28 109.004
rradius 31.0662
rwrist -26.2413
rhand -12.131 5.41281
rfingers 7.12502
rthumb 13.9307 -24.1005
lclavicle 4.29375e-014 -2.8625e-014
lhumerus -434.59 -43.0968 -267.715
lradius 49.6672
lwrist 41.1083
lhand -25.2593 6.1151
lfingers 7.12502
lthumb 1.26113 36.0911
rfemur -71.1696 -34.0769 3.29332
rtibia 121.253
rfoot 35.5319 19.045
rtoes -2.93926
lfemur -78.1651 7.30822 -3.62819
ltibia 121.651
lfoot 35.4335 -12.3369
ltoes -0.0616964
337
root -0.141283 2.0147 22.0809 -434.999 -175.025 367.046
lowerback 53.4842 2.27327 22.3611
upperback 26.5061 -1.70141 3.80902
thorax 11.3494 -5.35176 -6.40989
lowerneck 9.41329 11.7371 6.58542
upperneck 15.6773 15.6883 -8.39546
head 4.41553 7.33898 -3.38171
rclavicle -1.27222e-014 5.00937e-014
rhumerus -240.913 -173.929 109.387
rradius 30.4592
rwrist -25.6275
rhand -12.01 5.74762
rfingers 7.12502
rthumb 14.0474 -23.7577
lclavicle -1.27222e-014 5.00937e-014
lhumerus -434.224 -42.63 -268.018
lradius 49.3044
lwrist 40.5638
lhand -25.3438 5.83948
lfingers 7.12502
lthumb 1.17951 35.816
rfemur -71.1422 -34.0115 3.44306
rtibia 121.261
rfoot 35.5631 19.079
rtoes -2.88529
lfemur -78.0598 7.45754 -3.79093
ltibia 121.183
lfoot 35.133 -11.8131
ltoes 0.660878
338
root -0.147453 2.01849 22.0711 -435.009 -175.156 367.119
lowerback 53.8179 2.1772 22.5327
upperback 26.4308 -1.71864 3.81425
thorax 11.2579 -5.38316 -6.43784
lowerneck 9.5144 11.7414 6.45189
upperneck 15.4018 15.6779 -8.24745
head 4.29255 7.3496 -3.32956
rclavicle -1.72943e-014 4.53229e-014
rhumerus -240.629 -173.661 109.688
rradius 29.8774
rwrist -25.1949
rhand -11.9457 6.12749
rfingers 7.12502
rthumb 14.1094 -23.3735
lclavicle -1.72943e-014 4.53229e-014
lhumerus -433.836 -42.1334 -268.358
lradius 48.9455
lwrist 40.0325
lhand -25.3149 5.48138
lfingers 7.12502
lthumb 1.20741 35.4577
rfemur -71.0725 -33.9263 3.5609
rtibia 121.263
rfoot 35.5899 19.0305
rtoes -2.65432
lfemur -77.8945 7.59662 -3.93731
ltibia 120.733
lfoot 34.7581 -11.2024
ltoes 1.3428
339
root -0.154427 2.02225 22.0595 -435.026 -175.249 367.196
lowerback 54.1604 2.08048 22.6685
upperback 26.3599 -1.7551 3.8151
thorax 11.1641 -5.43048 -6.45059
lowerneck 9.61895 11.7644 6.35933
upperneck 15.124 15.6987 -8.12272
head 4.17615 7.3773 -3.28951
rclavicle -8.44835e-014 -1.98785e-014
rhumerus -240.321 -173.425 109.969
rradius 29.2893
rwrist -24.7434
rhand -11.9178 6.54122
rfingers 7.12502
rthumb 14.1362 -22.9579
lclavicle -8.44835e-014 -1.98785e-014
lhumerus -433.42 -41.5832 -268.751
lradius 48.5361
lwrist 39.5006
lhand -25.2258 4.94002
lfingers 7.12502
lthumb 1.29345 34.9158
rfemur -70.9974 -33.8954 3.61748
rtibia 121.275
rfoot 35.6235 19.0686
rtoes -2.6415
lfemur -77.7266 7.74074 -4.11316
ltibia 120.334
lfoot 34.3546 -10.5243
ltoes 2.06645
340
root -0.162231 2.02678 22.0468 -435.058 -175.33 367.253
lowerback 54.5061 2.00839 22.8145
upperback 26.315 -1.77503 3.84322
thorax 11.1099 -5.47593 -6.44689
lowerneck 9.75337 11.7862 6.24663
upperneck 14.8215 15.7174 -8.00359
head 4.04633 7.40424 -3.25121
rclavicle 1.90833e-014 -1.59028e-014
rhumerus -240.022 -173.14 110.272
rradius 28.711
rwrist -24.2862
rhand -11.9082 6.9225
rfingers 7.12502
rthumb 14.1454 -22.576
lclavicle 1.90833e-014 -1.59028e-014
lhumerus -432.992 -41.1456 -269.09
lradius 48.1218
lwrist 39.0425
lhand -25.1229 4.47739
lfingers 7.12502
lthumb 1.39284 34.4526
rfemur -70.8891 -33.888 3.63146
rtibia 121.288
rfoot 35.665 19.1279
rtoes -2.54464
lfemur -77.5397 7.91304 -4.30322
ltibia 119.988
lfoot 33.896 -9.80147
ltoes 2.94178
